<?xml version="1.0" encoding="utf-8"?>
<!-- Generator: Adobe Illustrator 22.1.0, SVG Export Plug-In . SVG Version: 6.00 Build 0)  -->
<svg version="1.1" id="Layer_1" xmlns="http://www.w3.org/2000/svg" xmlns:xlink="http://www.w3.org/1999/xlink" x="0px" y="0px"
	 viewBox="0 0 108.9 27.2" style="enable-background:new 0 0 108.9 27.2;" xml:space="preserve">
<style type="text/css">
	.st0{fill:#606060;}
	.st1{enable-background:new    ;}
</style>
<title>BALLOON</title>
<g id="Layer_2_1_">
	<g id="Layer_1-2">
		<g>
			<path class="st0" d="M3.2,20.6c-0.8,0-1.6-0.2-2.3-0.5c-0.5-0.3-0.8-0.8-0.8-1.3C0.1,18.2,0,17.6,0,17V3.5c0-1,0.4-2.1,1.1-2.8
				C1.4,0.4,1.8,0.1,2.2,0h0.1c0.2,0,0.2,0,0.2,0.2c0,1.6,0,3.1,0,4.7c0,3.1,0,6.2,0,9.2c0,1.2,0,2.4,0,3.6c0,0.7,0.1,1.3,0.2,2
				C2.8,20,3,20.3,3.2,20.6z"/>
		</g>
		<g>
			<path class="st0" d="M2.8,14.6c-0.1-1.9,0.6-3.8,1.9-5.3c0.9-0.9,1.9-1.5,3.1-1.8c2.5-0.7,5.1-0.1,7,1.7c0.9,0.9,1.6,2,1.9,3.2
				c0.1,0.3,0.1,0.5,0.1,0.8l-0.2-0.2c-0.6-0.7-1.6-0.9-2.5-0.7c-0.1,0-0.2,0-0.2-0.1c-0.4-0.7-1-1.3-1.7-1.8
				c-1-0.6-2.2-0.9-3.4-0.7c-2.4,0.3-4.5,1.8-5.5,4c-0.1,0.2-0.2,0.4-0.3,0.6C3,14.2,2.9,14.4,2.8,14.6z"/>
		</g>
		<g>
			<path class="st0" d="M17,14.4c0,2.3-0.9,4.6-2.4,6.3c-0.4,0.5-0.9,0.9-1.4,1.3c-0.4,0.3-0.8,0.5-1.3,0.5c-0.5,0.1-1,0.1-1.4,0
				c-0.4-0.1-0.6-0.3-0.8-0.7c-0.1-0.3,0-0.6,0.3-0.8c0,0,0,0,0.1,0c0.5-0.3,1.1-0.6,1.5-1c1.9-1.5,2.9-3.9,2.8-6.3
				c0-0.4-0.1-0.8-0.2-1.2c0-0.1,0-0.1,0.1-0.2c0.8-0.2,1.7,0.1,2.2,0.7C16.9,13.5,17,13.9,17,14.4z"/>
		</g>
		<g>
			<path class="st0" d="M0.7,20.3C1.4,20.8,2.2,21,3.1,21c0.3,0,0.6,0.1,0.8,0.3c1,1,2.2,1.6,3.5,1.8c1.4,0.3,2.8,0.2,4.1-0.1h0.1
				c0,0,0,0,0.1,0c-0.2,0.2-0.4,0.3-0.6,0.4c-2,1-4.3,1.2-6.5,0.5c-1.6-0.5-3-1.7-3.8-3.2c-0.1-0.1-0.1-0.2-0.2-0.3
				C0.7,20.4,0.7,20.3,0.7,20.3z"/>
		</g>
		<g>
			<path class="st0" d="M25.8,18.3c0.8-1.1,2.3-1.5,3.5-0.9c1.4,0.8,2.2,2.5,1.8,4.1c-0.2,1.5-1.4,2.6-2.8,2.8
				c-1,0.2-2.1-0.3-2.7-1.2c0,0-0.1,0.1-0.1,0.2c0,0.3,0.1,0.7-0.1,0.8c-0.4,0.1-0.9,0.1-1.3,0c-0.3,0-0.2-0.3-0.2-0.5v-8.8
				c0-0.2,0.1-0.4,0.3-0.3c0.4,0,0.7,0,1.1,0c0.3,0,0.4,0.1,0.4,0.4c0,0.9,0,1.9,0,2.9C25.7,18,25.7,18.2,25.8,18.3z M29.3,20.8
				c0-0.2,0-0.4-0.1-0.6c-0.2-0.7-0.7-1.3-1.5-1.4c-0.7-0.1-1.4,0.3-1.8,0.9c-0.4,0.5-0.2,1.2-0.3,1.8c0,0.3,0.1,0.6,0.3,0.8
				c0.5,0.6,1.3,0.8,2,0.5C28.8,22.4,29.4,21.6,29.3,20.8z"/>
		</g>
		<g>
			<path class="st0" d="M78.4,23.1c-0.4,0.5-1,0.9-1.6,1.1c-1.2,0.3-2.6-0.1-3.3-1.2c-0.9-1.3-0.9-3.1-0.1-4.4
				c0.9-1.4,2.7-1.8,4.1-0.9c0.2,0.1,0.4,0.3,0.6,0.5c0.1,0.1,0.2,0.3,0.4,0.4c0-0.2,0-0.4,0-0.6c0-0.6,0.3-0.8,0.9-0.6
				c0.2,0,0.2,0.2,0.2,0.3c0,2.3,0,4.6,0,6.8c0,1-0.7,1.9-1.6,2.3c-1.6,0.8-3.5,0.5-4.8-0.8c-0.2-0.3-0.2-0.4,0-0.6s0.4-0.3,0.7,0
				c1.1,1.1,2.8,1.2,4,0.2C78.4,24.9,78.6,24,78.4,23.1z M78.4,20.8v-0.4c0-1.3-1-2.3-2.3-2.3c-0.1,0-0.1,0-0.2,0
				c-1.1,0.2-1.9,1.1-2,2.2c-0.3,1.3,0.6,2.6,1.9,2.9c0.4,0.1,0.7,0.1,1.1,0C78.1,22.9,78.5,22.2,78.4,20.8L78.4,20.8z"/>
		</g>
		<g>
			<path class="st0" d="M47.9,20.8c0-2,1.6-3.6,3.6-3.6c2,0,3.6,1.6,3.6,3.6c0,2-1.6,3.6-3.6,3.6C49.5,24.4,47.9,22.8,47.9,20.8z
				 M53.4,20.9c0.1-0.9-0.4-1.8-1.3-2.1c-0.7-0.2-1.5,0-1.9,0.7c-0.5,0.7-0.5,1.7-0.1,2.5c0.3,0.6,0.9,1,1.6,0.9
				c0.7,0,1.3-0.4,1.5-1C53.3,21.6,53.4,21.2,53.4,20.9z"/>
		</g>
		<g>
			<path class="st0" d="M59.6,17.2c2,0,3.6,1.6,3.6,3.6c0,2-1.6,3.6-3.6,3.6c0,0,0,0,0,0c-2,0.1-3.6-1.5-3.7-3.4c0-0.1,0-0.1,0-0.2
				c-0.1-1.9,1.5-3.5,3.4-3.6C59.4,17.2,59.5,17.2,59.6,17.2z M59.7,18.7c-1.2,0.1-2.1,1.1-2,2.3c0,0.3,0.1,0.7,0.3,1
				c0.4,0.8,1.5,1.2,2.3,0.7c0.2-0.1,0.4-0.3,0.5-0.4c0.7-0.9,0.6-2.2-0.1-3C60.5,18.9,60.1,18.7,59.7,18.7z"/>
		</g>
		<g>
			<path class="st0" d="M36.7,23.2c-0.6,0.6-1.3,1-2.2,1.1c-1.2,0.2-2.4-0.6-2.6-1.8c0-0.2,0-0.4,0-0.6c0.2-1.1,1.1-2,2.3-2
				c0.7-0.1,1.4,0,2,0.1c0.3,0.1,0.3,0,0.3-0.2c0.1-0.7-0.4-1.4-1.2-1.5c-0.1,0-0.2,0-0.2,0c-0.8,0-1.6,0.3-2.3,0.8
				c0-0.1-0.1-0.2-0.2-0.3c-0.5-1-0.5-1,0.5-1.4c1-0.4,2.1-0.5,3.2-0.2c1.1,0.2,1.9,1.2,1.9,2.4c0,0.8,0,1.5,0,2.3
				c0,0.3,0.1,0.6,0.3,0.7c0.2,0.5,0.2,1,0,1.5c-0.6,0.3-1.3,0-1.7-0.5C36.8,23.6,36.8,23.4,36.7,23.2z M35.3,21
				c-0.4,0-0.8,0-1.2,0.2c-0.4,0.2-0.6,0.6-0.6,1c0.1,0.5,0.4,0.8,0.9,0.9c0.6,0.1,1.3-0.1,1.8-0.5c0.3-0.3,0.4-0.8,0.3-1.2
				c0-0.3-0.4-0.3-0.7-0.3C35.6,21,35.4,21,35.3,21z"/>
		</g>
		<g>
			<path class="st0" d="M66.1,18.4c0.6-0.8,1.7-1.3,2.7-1.2c1-0.1,1.9,0.7,2,1.7c0.1,0.5,0.1,1,0.1,1.6c0,1.1,0,2.3,0,3.4
				c0,0.4-0.1,0.4-0.4,0.4c-1.3,0-1.3,0-1.3-1.3v-2.7c0-0.3,0-0.6-0.2-0.9c-0.2-0.4-0.6-0.7-1.1-0.6c-0.9,0.1-1.6,0.9-1.7,1.9
				c0.1,1.1,0,2.1,0,3.2c0,0.3-0.1,0.4-0.4,0.4c-1.4,0-1.4,0-1.4-1.3c0-1.7,0-3.4,0-5.2c0-0.3,0.1-0.5,0.4-0.5s0.8-0.1,1.1,0.1
				S65.9,18,66.1,18.4z"/>
		</g>
		<g>
			<path class="st0" d="M103.1,18.5c1.2-1.3,2.4-1.6,3.6-1.1c1.3,0.6,2.2,1.9,2.2,3.3c0.1,1-0.3,1.9-0.9,2.6c-1,1.2-2.9,1.4-4.1,0.4
				c-0.1-0.1-0.2-0.2-0.3-0.3c-0.1-0.1-0.2-0.3-0.4-0.4c0,1.2,0,2.3,0,3.4c0,0.2,0.1,0.5-0.1,0.5c-0.3,0.1-0.7,0.1-1,0
				c-0.1,0-0.1-0.2-0.1-0.3c0-3,0-6,0-9.1c0-0.4,0.2-0.4,0.4-0.3s0.6-0.2,0.6,0.3L103.1,18.5z M103.3,20.7c0,0.4-0.1,0.9,0.1,1.3
				c0.4,0.9,1.3,1.4,2.3,1.3c0.9-0.1,1.7-0.8,1.9-1.8c0.1-0.4,0.2-0.8,0.1-1.2c-0.1-1.3-1.2-2.2-2.4-2.1c-0.5,0-0.9,0.2-1.2,0.5
				C103.4,19.1,103.1,19.9,103.3,20.7z"/>
		</g>
		<g>
			<path class="st0" d="M85.7,20.8c0-1.9,1.6-3.5,3.5-3.5s3.5,1.6,3.5,3.5s-1.6,3.5-3.5,3.5S85.7,22.7,85.7,20.8z M89.2,18.2
				c-1.2,0.1-2.2,1.1-2.3,2.3c-0.3,1.3,0.5,2.5,1.7,2.8s2.5-0.5,2.8-1.7c0.1-0.2,0.1-0.5,0.1-0.7C91.6,19.5,90.6,18.3,89.2,18.2
				C89.3,18.2,89.2,18.2,89.2,18.2z"/>
		</g>
		<g>
			<path class="st0" d="M39.9,18.9c0-1.3,0-2.6,0-3.8c0-0.4,0.1-0.5,0.5-0.4s1-0.2,1.2,0.1s0.1,0.8,0.1,1.2c0,2,0,3.9,0,5.9
				c0,0.9,0.3,1.1,1.2,1c0.2,0,0.3,0,0.3,0.2c0,0,0,0.1,0,0.1c0.2,1.1,0.2,1.1-0.9,1.2c-0.2,0-0.4,0-0.6,0c-0.8,0.1-1.7-0.4-1.8-1.3
				c0-0.2,0-0.3,0-0.5L39.9,18.9z"/>
		</g>
		<g>
			<path class="st0" d="M44.1,18.9c0-1.3,0-2.6,0-3.9c0-0.3,0.1-0.5,0.4-0.4s1-0.2,1.3,0.1s0.1,0.8,0.1,1.2v6c0,0.9,0.3,1.1,1.1,0.9
				c0.1,0,0.2-0.1,0.2,0c0.2,0.4,0.2,0.7,0.3,1.1c0,0.2-0.2,0.3-0.3,0.3c-0.5,0.2-1.1,0.3-1.6,0.2c-0.8,0-1.5-0.6-1.5-1.4
				c0-0.1,0-0.1,0-0.2C44.1,21.5,44.1,20.2,44.1,18.9z"/>
		</g>
		<g>
			<path class="st0" d="M99.1,22.9c-0.6,0.8-1.5,1.4-2.5,1.5c-1.1,0.2-2.2-0.5-2.5-1.6c0-0.1,0-0.3,0-0.4c-0.1-1.5,0-3.1-0.1-4.7
				c0-0.2,0.1-0.3,0.3-0.3c0.2,0,0.3,0,0.5,0c0.3,0,0.4,0.1,0.4,0.4c0,1.3,0,2.6,0,3.9c0.1,1.6,1.3,2.2,2.7,1.3
				c0.7-0.4,1.2-1.2,1.1-2c0-1.1,0-2.2,0-3.3c0-0.5,0.3-0.4,0.6-0.4s0.6-0.1,0.6,0.4c0,1.6,0,3.1,0,4.7c0,0.3,0.1,0.6,0.3,0.8
				c0.2,0.2,0.1,0.6,0.1,0.9s-0.3,0.1-0.5,0.1c-0.3,0-0.7-0.2-0.8-0.5C99.2,23.5,99.1,23.2,99.1,22.9z"/>
		</g>
		<g>
			<path class="st0" d="M82.6,18.7c0.5-0.7,1.1-1.1,1.9-1.4c0.2,0,0.6-0.3,0.7,0.1c0.2,0.6,0,0.9-0.5,0.9c-0.6,0.1-1.1,0.3-1.5,0.7
				c-0.4,0.3-0.6,0.8-0.6,1.3c0,1.1,0,2.2,0,3.3c0,0.4-0.1,0.5-0.5,0.5c-0.9,0-0.7,0.1-0.7-0.7c0-1.9,0-3.8,0-5.7
				c0-0.5,0.2-0.5,0.6-0.5s0.6,0,0.6,0.5C82.6,18.1,82.6,18.4,82.6,18.7z"/>
		</g>
	</g>
</g>
</svg>
